P1
574 12
0011100000100000111000011100000010001111100001110011111000111000011100
0000000110000000000000000110000000000011100000000110000000010000000100
1100000011100000000000000000000000000000000000000000000000000000000000
0000000000000000000000000000000000000000000000000000000000000000000000
0000000000000000000000000000000000000000000000000000000000000000000000
0000000000000000000000000000000000000000000000000000000000000000000000
0000000000000000000000000000000000000000000100000000000000000000000000
0000001000000000000000000000000000000000000000000000000000000100100000
00000000000000
0100010011100001000100100010000110001000000010000010001001000100100010
0000000010000000000000000010000000000100000000000010000000000000000000
0100000000100000000000000000000000000000000000000000000000000000010000
0000000000000000000000000000000000000000000111000111110000111001111100
1111110111111000111001110111011111000111101110110111000011000111100111
0011100111110000111001111100001111011111111110111111011111101111110111
1110111011111000000000000000000100000101000010000000000000000000011100
0000010000000000000000000000000000000110000011100000100000001000010000
00000000000000
0100010000100001000100000010001010001000000100000000010001000100100010
0000000010000000000000000010000000000100000000000010000000000000000000
0100000000100000000000000000000000000000000000000000000000000000010000
0000000000000000000000000000000000000000000001000010001001000100100010
0100010010001001000100100010000100000001000100100010000001101100110010
0100010010011001000100100010010001010010010100010010001001000100100010
0100010010001000000000000000000100000101000010000000000000000000100010
0000010001000000001000000000000000001001000100100000100000001000010000
00000000000000
0100010000100001000100000010001010001000000100000000010001000100100010
0111100011110000111000011110001110001111100011101010110001110000111100
0100110000100011101001011100001110010111000011101010111000111000111110
1100110111011111101111110111111011101111100010100010001001000100100010
0101000010101001000100100010000100000001000101000010000001101100110010
0100010010001001000100100010010000010010010100010010001001010100010100
0010100010010000000000000000001000000101000001000000000000000000000010
0000100000100000010000000000000100000110010100000011111000010000001000
00000000000000
0100010000100000001000001100010010001111000111100000010000111000100010
0000010010001001000100100010010001000100000100010011001000010000000100
0101000000100001010100110010010001001000100100010001000001000100010000
0100010010001001000100010100010001001001000010100011110001000000100010
0111000011100001000000111110000100000001000110000010000001010100101010
0100010010011001000100111100011100000010000100010011011001010100001000
0010100000100000010000001000000000000000000001000000000000000000000100
0000100000010000100000000000000100000001100010001000100000010000001000
00000000111110
0100010000100000010000000010100010000000100100010000010001000100011110
0011110010001001000000100010011111000100000100010010001000010000000100
0110000000100001010100100010010001001000100100010001000000111000010000
0100010010001001010100001000010001000010000111110010001001000000100010
0101000010100001001100100010000100000001000111000010000001010100101010
0100010011110001000100100100000111000010000100010001010001010100010100
0001000000100000000000000000000000000000000000100000000000000000001000
0001000000001001000000111110011111000110000111010001010000010000001000
00000000000000
0100010000100000100000000010111111000000100100010000100001000100000010
0100010010001001000000100010010000000100000100010010001000010000000100
0101000000100001010100100010010001001000100100010001000000000100010000
0100010001010001010100010100001010000100000100010010001001000100100010
0100000010000001000100100010000100001001000100100010001001010100100110
0100010010000001000100100010000001000010000100010001010001101100010100
0001000001001000000000000000000000000000000000100000000000000000001000
0001000000010000100000000000000100001001101000100000000000010000001000
00000000111110
0100010000100001000100100010000010010000100100010000100001000100000100
0100010010001001000100100010010001000100000100010010001000010000000100
0100100000100001010100100010010001001000100100010001000001000100010001
0100010001110000101000100010001110001000100100010010001001000100100010
0100010010000001000100100010000100001001000100010010001001000100100110
0100010010000001000100100010010001000010000110110001110000101000100010
0001000010001000000000001000000000000000000000010001000000000000000000
0010000000100000010000000000000100000010011000110000000000010000001000
00000000000000
0011100011111001111100011100000111001111000011100000100000111000111000
0011101101110000111000011101001110001111000011110111011101111100000100
1100011011111111010111110011001110001111000011110011110000111000001110
0011101000100000101001100011000100001111101110111111110000111001111100
1111110111100000111001110111011111000110001110011111111011101111110010
0011100111100000111001110011011110001111100011100000100000101001110111
0011100011111000010000001000000000000000000000010001000000100000001000
0010000001000000001000000000000000000001100111001000000000001000010000
00000000000000
0000000000000000000000000000000000000000000000000000000000000000000000
0000000000000000000000000000000000000000000000010000000000000000000100
0000000000000000000000000000000000001000000000010000000000000000000000
0000000000000000000000000000000100000000000000000000000000000000000000
0000000000000000000000000000000000000000000000000000000000000000000000
0000000000000000001100000000000000000000000000000000000000000000000000
0000000000000000000000010000000000000000000000001010000000000000000000
0100000000000000000000000000000000000000000000000000000000001000010000
00000000000000
0000000000000000000000000000000000000000000000000000000000000000000000
0000000000000000000000000000000000000000000000010000000000000000000100
0000000000000000000000000000000000001000000000010000000000000000000000
0000000000000000000000000000000100000000000000000000000000000000000000
0000000000000000000000000000000000000000000000000000000000000000000000
0000000000000000000000000000000000000000000000000000000000000000000000
0000000000000000000000000000000000000000000000000000000000000000000000
0000000000000000000000000000000000000000000000000000000000000100100000
00000000000000
0000000000000000000000000000000000000000000000000000000000000000000000
0000000000000000000000000000000000000000000011100000000000000000111000
0000000000000000000000000000000000011100000000111000000000000000000000
0000000000000000000000000000011000000000000000000000000000000000000000
0000000000000000000000000000000000000000000000000000000000000000000000
0000000000000000000000000000000000000000000000000000000000000000000000
0000000000000000000000000000000000000000000000000000000000000000000000
0000000000000000000000000000000000000000000000000000000000000000000000
11111110000000
